<svg xmlns="http://www.w3.org/2000/svg" viewBox="0 0 800 700" width="800" height="700">
  <defs>
    <!-- Subtle grain texture filter for hand-drawn feel -->
    <filter id="pencil" x="-2%" y="-2%" width="104%" height="104%">
      <feTurbulence type="fractalNoise" baseFrequency="0.5" numOctaves="5" result="noise"/>
      <feDisplacementMap in="SourceGraphic" in2="noise" scale="1.2" xChannelSelector="R" yChannelSelector="G"/>
    </filter>
    <!-- Soft shadow -->
    <filter id="shadow" x="-5%" y="-5%" width="115%" height="115%">
      <feDropShadow dx="3" dy="5" stdDeviation="6" flood-color="#8a7050" flood-opacity="0.18"/>
    </filter>
    <!-- Inner glow for depth -->
    <radialGradient id="brainGrad" cx="45%" cy="40%" r="55%">
      <stop offset="0%" stop-color="#f5c6b0"/>
      <stop offset="40%" stop-color="#e8a992"/>
      <stop offset="75%" stop-color="#d4907a"/>
      <stop offset="100%" stop-color="#c47e6a"/>
    </radialGradient>
    <radialGradient id="frontalGrad" cx="35%" cy="40%" r="50%">
      <stop offset="0%" stop-color="#f0c4af"/>
      <stop offset="100%" stop-color="#dba48e"/>
    </radialGradient>
    <radialGradient id="parietalGrad" cx="55%" cy="30%" r="50%">
      <stop offset="0%" stop-color="#edbfaa"/>
      <stop offset="100%" stop-color="#d99a84"/>
    </radialGradient>
    <radialGradient id="temporalGrad" cx="40%" cy="60%" r="50%">
      <stop offset="0%" stop-color="#e6b49e"/>
      <stop offset="100%" stop-color="#cf8d78"/>
    </radialGradient>
    <radialGradient id="occipitalGrad" cx="70%" cy="45%" r="45%">
      <stop offset="0%" stop-color="#e8b8a2"/>
      <stop offset="100%" stop-color="#d49580"/>
    </radialGradient>
    <radialGradient id="cerebellumGrad" cx="60%" cy="40%" r="55%">
      <stop offset="0%" stop-color="#e0a894"/>
      <stop offset="100%" stop-color="#c98570"/>
    </radialGradient>
    <radialGradient id="stemGrad" cx="50%" cy="30%" r="60%">
      <stop offset="0%" stop-color="#dba28c"/>
      <stop offset="100%" stop-color="#c07a64"/>
    </radialGradient>
    <!-- Highlight gradient for top-left shine -->
    <radialGradient id="highlight" cx="30%" cy="25%" r="40%">
      <stop offset="0%" stop-color="rgba(255,255,255,0.25)"/>
      <stop offset="100%" stop-color="rgba(255,255,255,0)"/>
    </radialGradient>
  </defs>

  <g filter="url(#shadow)" transform="translate(50, 30)">
    <!-- ============================================= -->
    <!-- BRAIN STEM (drawn first, behind everything)   -->
    <!-- ============================================= -->
    <path d="M 468,480 C 462,495 458,515 460,540 C 462,558 458,575 452,592 C 448,604 450,618 454,630 C 456,636 454,642 450,646 C 446,650 440,648 438,642 C 432,624 428,604 430,582 C 432,565 434,548 430,530 C 426,512 432,492 442,478 C 448,470 455,468 462,472 Z"
          fill="url(#stemGrad)" stroke="#a06850" stroke-width="2.2" stroke-linecap="round" stroke-linejoin="round" filter="url(#pencil)"/>
    <!-- Stem detail lines -->
    <path d="M 448,500 C 452,510 450,522 448,532" fill="none" stroke="#b07060" stroke-width="1.5" stroke-linecap="round" opacity="0.6"/>
    <path d="M 442,510 C 446,525 444,540 440,555" fill="none" stroke="#b07060" stroke-width="1.3" stroke-linecap="round" opacity="0.5"/>
    <path d="M 455,495 C 458,508 456,520 454,535" fill="none" stroke="#b07060" stroke-width="1.2" stroke-linecap="round" opacity="0.5"/>
    <!-- Medulla oblongata texture -->
    <path d="M 438,570 C 444,568 450,572 454,578" fill="none" stroke="#a06850" stroke-width="1.1" stroke-linecap="round" opacity="0.4"/>
    <path d="M 436,585 C 442,582 448,586 452,592" fill="none" stroke="#a06850" stroke-width="1.1" stroke-linecap="round" opacity="0.4"/>
    <path d="M 440,600 C 446,598 450,602 452,610" fill="none" stroke="#a06850" stroke-width="1.0" stroke-linecap="round" opacity="0.35"/>

    <!-- ============================================= -->
    <!-- CEREBELLUM (behind temporal/occipital lobes)  -->
    <!-- ============================================= -->
    <path d="M 470,430 C 510,425 555,432 585,450 C 608,462 618,482 610,505 C 604,522 585,535 560,540 C 538,544 512,540 490,530 C 468,520 452,505 448,485 C 444,465 450,440 470,430 Z"
          fill="url(#cerebellumGrad)" stroke="#a06850" stroke-width="2.5" stroke-linecap="round" stroke-linejoin="round" filter="url(#pencil)"/>
    <!-- Cerebellum folia (horizontal striations) -->
    <path d="M 478,445 C 510,440 545,445 575,458" fill="none" stroke="#b07862" stroke-width="1.8" stroke-linecap="round" opacity="0.55"/>
    <path d="M 465,460 C 500,452 540,456 580,470" fill="none" stroke="#b07862" stroke-width="1.7" stroke-linecap="round" opacity="0.55"/>
    <path d="M 458,475 C 495,466 535,470 575,484" fill="none" stroke="#b07862" stroke-width="1.7" stroke-linecap="round" opacity="0.5"/>
    <path d="M 455,490 C 490,482 530,486 568,498" fill="none" stroke="#b07862" stroke-width="1.6" stroke-linecap="round" opacity="0.5"/>
    <path d="M 458,505 C 488,498 525,500 558,512" fill="none" stroke="#b07862" stroke-width="1.5" stroke-linecap="round" opacity="0.45"/>
    <path d="M 465,518 C 492,512 520,514 548,524" fill="none" stroke="#b07862" stroke-width="1.4" stroke-linecap="round" opacity="0.4"/>
    <!-- Cerebellum arbor vitae detail -->
    <path d="M 530,440 C 528,455 532,470 528,485" fill="none" stroke="#a87062" stroke-width="1.2" stroke-linecap="round" opacity="0.35"/>
    <path d="M 505,448 C 504,462 506,476 502,492" fill="none" stroke="#a87062" stroke-width="1.2" stroke-linecap="round" opacity="0.3"/>
    <path d="M 555,445 C 554,460 556,475 552,490" fill="none" stroke="#a87062" stroke-width="1.1" stroke-linecap="round" opacity="0.3"/>

    <!-- ============================================= -->
    <!-- MAIN CEREBRUM - OUTER SHAPE                   -->
    <!-- ============================================= -->
    <!-- Main brain mass (lateral view, left hemisphere) -->
    <path d="M 220,340
             C 195,310 162,275 148,235
             C 132,190 135,150 158,115
             C 178,84 210,62 250,50
             C 285,40 325,38 365,42
             C 405,46 440,55 472,72
             C 502,88 528,110 548,138
             C 565,162 575,190 578,220
             C 582,252 578,285 568,315
             C 558,345 542,372 520,395
             C 500,415 475,430 448,440
             C 420,450 390,452 360,448
             C 328,444 298,432 272,415
             C 248,398 232,375 220,340 Z"
          fill="url(#brainGrad)" stroke="#a06850" stroke-width="3" stroke-linecap="round" stroke-linejoin="round" filter="url(#pencil)"/>

    <!-- Global highlight overlay -->
    <path d="M 220,340
             C 195,310 162,275 148,235
             C 132,190 135,150 158,115
             C 178,84 210,62 250,50
             C 285,40 325,38 365,42
             C 405,46 440,55 472,72
             C 502,88 528,110 548,138
             C 565,162 575,190 578,220
             C 582,252 578,285 568,315
             C 558,345 542,372 520,395
             C 500,415 475,430 448,440
             C 420,450 390,452 360,448
             C 328,444 298,432 272,415
             C 248,398 232,375 220,340 Z"
          fill="url(#highlight)" stroke="none"/>

    <!-- ============================================= -->
    <!-- CENTRAL SULCUS (Rolandic fissure)             -->
    <!-- Divides frontal from parietal lobe             -->
    <!-- ============================================= -->
    <path d="M 370,52 C 365,78 358,105 362,130 C 366,152 355,175 348,200 C 342,222 350,245 358,268 C 364,285 355,305 345,325 C 338,340 342,358 350,375 C 356,388 348,405 340,418"
          fill="none" stroke="#a06850" stroke-width="2.8" stroke-linecap="round" opacity="0.7" filter="url(#pencil)"/>
    <!-- Secondary line for depth -->
    <path d="M 373,55 C 368,80 360,108 364,132 C 367,150 357,172 350,196"
          fill="none" stroke="#c49480" stroke-width="1.2" stroke-linecap="round" opacity="0.4"/>

    <!-- ============================================= -->
    <!-- LATERAL SULCUS (Sylvian fissure)              -->
    <!-- Separates temporal lobe below                  -->
    <!-- ============================================= -->
    <path d="M 200,295 C 230,285 265,282 300,288 C 332,294 360,305 388,318 C 412,330 435,342 460,348 C 478,352 495,345 510,335"
          fill="none" stroke="#a06850" stroke-width="2.8" stroke-linecap="round" opacity="0.7" filter="url(#pencil)"/>
    <path d="M 205,298 C 235,290 268,286 302,292 C 330,297 358,308 384,320"
          fill="none" stroke="#c49480" stroke-width="1.2" stroke-linecap="round" opacity="0.35"/>

    <!-- ============================================= -->
    <!-- PARIETO-OCCIPITAL SULCUS                      -->
    <!-- ============================================= -->
    <path d="M 510,110 C 505,140 512,168 518,198 C 522,220 515,245 505,268"
          fill="none" stroke="#a06850" stroke-width="2.2" stroke-linecap="round" opacity="0.55" filter="url(#pencil)"/>

    <!-- ============================================= -->
    <!-- FRONTAL LOBE GYRI (detailed folds)            -->
    <!-- ============================================= -->
    <!-- Superior frontal gyrus -->
    <path d="M 185,155 C 210,148 235,152 260,145 C 280,140 295,148 315,142 C 332,137 348,145 360,140"
          fill="none" stroke="#b07862" stroke-width="2.2" stroke-linecap="round" opacity="0.55" filter="url(#pencil)"/>
    <!-- Middle frontal gyrus -->
    <path d="M 168,190 C 195,182 222,188 250,180 C 272,174 292,182 315,175 C 335,170 350,178 360,172"
          fill="none" stroke="#b07862" stroke-width="2.2" stroke-linecap="round" opacity="0.55" filter="url(#pencil)"/>
    <!-- Inferior frontal gyrus -->
    <path d="M 158,225 C 182,218 206,224 230,216 C 250,210 270,218 292,212 C 310,207 328,215 345,210"
          fill="none" stroke="#b07862" stroke-width="2.0" stroke-linecap="round" opacity="0.5" filter="url(#pencil)"/>
    <!-- Precentral gyrus -->
    <path d="M 340,70 C 345,95 338,118 342,142 C 346,162 340,182 335,205 C 330,225 338,248 342,270"
          fill="none" stroke="#b07862" stroke-width="2.0" stroke-linecap="round" opacity="0.5" filter="url(#pencil)"/>
    <!-- Additional frontal detail sulci -->
    <path d="M 195,120 C 218,115 240,120 262,112 C 280,106 298,112 318,108"
          fill="none" stroke="#b87868" stroke-width="1.6" stroke-linecap="round" opacity="0.4"/>
    <path d="M 175,170 C 200,165 228,170 252,162 C 272,158 290,164 310,158"
          fill="none" stroke="#b87868" stroke-width="1.5" stroke-linecap="round" opacity="0.38"/>
    <path d="M 162,205 C 188,198 215,204 240,196 C 258,192 278,198 298,192"
          fill="none" stroke="#b87868" stroke-width="1.5" stroke-linecap="round" opacity="0.38"/>
    <!-- Frontal pole detail -->
    <path d="M 155,140 C 162,155 158,172 155,188 C 152,202 158,218 162,232"
          fill="none" stroke="#b87868" stroke-width="1.4" stroke-linecap="round" opacity="0.35"/>
    <path d="M 170,130 C 176,148 172,165 170,182"
          fill="none" stroke="#b87868" stroke-width="1.3" stroke-linecap="round" opacity="0.3"/>
    <!-- Small wrinkle details frontal -->
    <path d="M 210,90 C 225,86 238,92 250,85" fill="none" stroke="#c08a78" stroke-width="1.2" stroke-linecap="round" opacity="0.3"/>
    <path d="M 240,75 C 258,70 275,76 290,68" fill="none" stroke="#c08a78" stroke-width="1.2" stroke-linecap="round" opacity="0.3"/>
    <path d="M 280,58 C 296,54 310,60 325,55" fill="none" stroke="#c08a78" stroke-width="1.1" stroke-linecap="round" opacity="0.28"/>
    <path d="M 190,248 C 212,240 235,246 258,238" fill="none" stroke="#c08a78" stroke-width="1.3" stroke-linecap="round" opacity="0.32"/>
    <path d="M 225,262 C 248,255 270,260 292,252" fill="none" stroke="#c08a78" stroke-width="1.2" stroke-linecap="round" opacity="0.3"/>

    <!-- ============================================= -->
    <!-- PARIETAL LOBE GYRI                            -->
    <!-- ============================================= -->
    <!-- Postcentral gyrus -->
    <path d="M 382,58 C 388,82 380,108 384,132 C 388,155 382,178 378,200 C 374,220 380,242 386,262"
          fill="none" stroke="#b07862" stroke-width="2.0" stroke-linecap="round" opacity="0.5" filter="url(#pencil)"/>
    <!-- Superior parietal lobule -->
    <path d="M 390,80 C 415,75 438,82 460,76 C 478,72 496,78 510,72"
          fill="none" stroke="#b07862" stroke-width="2.0" stroke-linecap="round" opacity="0.5" filter="url(#pencil)"/>
    <!-- Intraparietal sulcus -->
    <path d="M 385,115 C 412,108 438,115 462,108 C 482,103 502,110 520,105"
          fill="none" stroke="#b07862" stroke-width="2.0" stroke-linecap="round" opacity="0.5" filter="url(#pencil)"/>
    <!-- Inferior parietal lobule -->
    <path d="M 380,150 C 405,144 430,150 455,142 C 475,137 498,144 520,138"
          fill="none" stroke="#b07862" stroke-width="1.8" stroke-linecap="round" opacity="0.45" filter="url(#pencil)"/>
    <!-- Supramarginal gyrus -->
    <path d="M 395,185 C 418,178 442,185 465,178 C 485,172 505,180 528,174"
          fill="none" stroke="#b07862" stroke-width="1.8" stroke-linecap="round" opacity="0.45" filter="url(#pencil)"/>
    <!-- Angular gyrus -->
    <path d="M 408,220 C 432,214 455,220 478,212 C 498,206 518,215 540,210"
          fill="none" stroke="#b07862" stroke-width="1.7" stroke-linecap="round" opacity="0.42"/>
    <!-- Additional parietal details -->
    <path d="M 400,98 C 422,92 445,98 468,92" fill="none" stroke="#c08a78" stroke-width="1.3" stroke-linecap="round" opacity="0.3"/>
    <path d="M 392,132 C 416,126 440,132 462,125" fill="none" stroke="#c08a78" stroke-width="1.2" stroke-linecap="round" opacity="0.28"/>
    <path d="M 402,168 C 425,162 448,168 470,160" fill="none" stroke="#c08a78" stroke-width="1.2" stroke-linecap="round" opacity="0.28"/>
    <path d="M 415,202 C 438,196 460,202 482,194" fill="none" stroke="#c08a78" stroke-width="1.2" stroke-linecap="round" opacity="0.26"/>

    <!-- ============================================= -->
    <!-- OCCIPITAL LOBE GYRI                           -->
    <!-- ============================================= -->
    <path d="M 530,155 C 542,172 550,192 555,215 C 558,232 552,250 545,268"
          fill="none" stroke="#b07862" stroke-width="1.8" stroke-linecap="round" opacity="0.45" filter="url(#pencil)"/>
    <path d="M 540,180 C 550,198 555,218 558,240"
          fill="none" stroke="#b87868" stroke-width="1.5" stroke-linecap="round" opacity="0.38"/>
    <path d="M 548,200 C 556,218 560,238 558,258"
          fill="none" stroke="#b87868" stroke-width="1.5" stroke-linecap="round" opacity="0.35"/>
    <!-- Calcarine sulcus area -->
    <path d="M 525,240 C 540,248 552,260 560,275 C 565,288 558,302 548,312"
          fill="none" stroke="#b07862" stroke-width="1.8" stroke-linecap="round" opacity="0.42"/>
    <path d="M 535,260 C 548,270 555,282 558,296"
          fill="none" stroke="#c08a78" stroke-width="1.2" stroke-linecap="round" opacity="0.3"/>
    <!-- Occipital pole details -->
    <path d="M 558,280 C 568,295 572,312 565,330"
          fill="none" stroke="#b87868" stroke-width="1.4" stroke-linecap="round" opacity="0.35"/>
    <path d="M 548,310 C 558,325 562,342 555,358"
          fill="none" stroke="#c08a78" stroke-width="1.2" stroke-linecap="round" opacity="0.3"/>

    <!-- ============================================= -->
    <!-- TEMPORAL LOBE GYRI                            -->
    <!-- ============================================= -->
    <!-- Superior temporal gyrus -->
    <path d="M 210,315 C 240,308 270,315 300,310 C 325,306 350,314 378,308 C 400,304 422,312 445,308"
          fill="none" stroke="#b07862" stroke-width="2.0" stroke-linecap="round" opacity="0.5" filter="url(#pencil)"/>
    <!-- Middle temporal gyrus -->
    <path d="M 222,348 C 252,340 280,348 310,342 C 335,337 360,345 388,338 C 410,334 432,342 455,336"
          fill="none" stroke="#b07862" stroke-width="1.8" stroke-linecap="round" opacity="0.48" filter="url(#pencil)"/>
    <!-- Inferior temporal gyrus -->
    <path d="M 238,378 C 265,372 292,378 320,372 C 345,367 370,375 398,368 C 418,364 438,372 458,368"
          fill="none" stroke="#b07862" stroke-width="1.8" stroke-linecap="round" opacity="0.45" filter="url(#pencil)"/>
    <!-- Temporal pole detail -->
    <path d="M 215,330 C 220,345 218,362 222,378 C 226,392 224,408 228,420"
          fill="none" stroke="#b87868" stroke-width="1.5" stroke-linecap="round" opacity="0.38"/>
    <!-- Additional temporal sulci -->
    <path d="M 250,330 C 275,324 302,330 328,324" fill="none" stroke="#c08a78" stroke-width="1.3" stroke-linecap="round" opacity="0.3"/>
    <path d="M 260,360 C 285,354 312,360 338,354" fill="none" stroke="#c08a78" stroke-width="1.2" stroke-linecap="round" opacity="0.28"/>
    <path d="M 275,390 C 298,384 322,390 348,384" fill="none" stroke="#c08a78" stroke-width="1.2" stroke-linecap="round" opacity="0.26"/>
    <!-- Fusiform area -->
    <path d="M 252,405 C 280,398 310,405 340,398 C 365,393 390,400 418,394"
          fill="none" stroke="#b87868" stroke-width="1.5" stroke-linecap="round" opacity="0.35"/>
    <path d="M 268,425 C 296,418 325,425 355,418 C 378,414 402,420 428,416"
          fill="none" stroke="#c08a78" stroke-width="1.2" stroke-linecap="round" opacity="0.28"/>

    <!-- ============================================= -->
    <!-- CONNECTING AREA - temporal to occipital       -->
    <!-- ============================================= -->
    <path d="M 470,340 C 488,352 502,368 510,388 C 516,405 512,422 502,435"
          fill="none" stroke="#b07862" stroke-width="1.7" stroke-linecap="round" opacity="0.42"/>
    <path d="M 478,360 C 492,372 500,388 504,405"
          fill="none" stroke="#c08a78" stroke-width="1.2" stroke-linecap="round" opacity="0.3"/>
    <path d="M 485,378 C 496,390 502,405 498,420"
          fill="none" stroke="#c08a78" stroke-width="1.1" stroke-linecap="round" opacity="0.28"/>

    <!-- ============================================= -->
    <!-- CENTRAL AREA DETAILS (around sulci)           -->
    <!-- ============================================= -->
    <!-- Pre/post central connection details -->
    <path d="M 348,248 C 362,255 375,250 388,258"
          fill="none" stroke="#b87868" stroke-width="1.4" stroke-linecap="round" opacity="0.35"/>
    <path d="M 340,275 C 356,268 372,275 388,270"
          fill="none" stroke="#c08a78" stroke-width="1.2" stroke-linecap="round" opacity="0.3"/>
    <path d="M 330,292 C 348,286 366,292 382,288"
          fill="none" stroke="#c08a78" stroke-width="1.1" stroke-linecap="round" opacity="0.28"/>

    <!-- ============================================= -->
    <!-- OUTLINE RE-STROKE for hand-drawn character    -->
    <!-- ============================================= -->
    <!-- Re-trace parts of outline with slight variation for organic feel -->
    <path d="M 220,340 C 195,310 162,275 148,235"
          fill="none" stroke="#905a48" stroke-width="2.8" stroke-linecap="round" opacity="0.3"/>
    <path d="M 158,115 C 178,84 210,62 250,50 C 285,40 325,38 365,42"
          fill="none" stroke="#905a48" stroke-width="2.5" stroke-linecap="round" opacity="0.25"/>
    <path d="M 548,138 C 565,162 575,190 578,220"
          fill="none" stroke="#905a48" stroke-width="2.5" stroke-linecap="round" opacity="0.25"/>

    <!-- ============================================= -->
    <!-- LOBE LABELS (subtle, hand-drawn style)        -->
    <!-- ============================================= -->
    <g font-family="'Source Serif Pro', Georgia, serif" fill="#8a6050" opacity="0.55">
      <text x="248" y="170" font-size="15" font-style="italic" letter-spacing="1">Frontale</text>
      <text x="428" y="148" font-size="15" font-style="italic" letter-spacing="1">Parietale</text>
      <text x="525" y="280" font-size="14" font-style="italic" letter-spacing="1">Occipitale</text>
      <text x="288" y="365" font-size="15" font-style="italic" letter-spacing="1">Temporale</text>
      <text x="502" y="495" font-size="14" font-style="italic" letter-spacing="1">Cervelletto</text>
      <text x="420" y="600" font-size="13" font-style="italic" letter-spacing="0.5">Tronco</text>
    </g>

    <!-- ============================================= -->
    <!-- DECORATIVE ANATOMY MARKERS                    -->
    <!-- ============================================= -->
    <!-- Small circles at key anatomical points -->
    <circle cx="370" cy="52" r="4" fill="#b2956c" opacity="0.5"/>
    <circle cx="200" cy="295" r="3.5" fill="#b2956c" opacity="0.45"/>
    <circle cx="510" cy="110" r="3.5" fill="#b2956c" opacity="0.45"/>
    <circle cx="448" cy="440" r="3.5" fill="#b2956c" opacity="0.45"/>

    <!-- Dashed leader lines from markers -->
    <line x1="370" y1="52" x2="370" y2="38" stroke="#b2956c" stroke-width="0.8" stroke-dasharray="3,3" opacity="0.35"/>
    <line x1="200" y1="295" x2="185" y2="295" stroke="#b2956c" stroke-width="0.8" stroke-dasharray="3,3" opacity="0.35"/>
    <line x1="510" y1="110" x2="510" y2="96" stroke="#b2956c" stroke-width="0.8" stroke-dasharray="3,3" opacity="0.35"/>

    <!-- ============================================= -->
    <!-- SUBTLE TEXTURE DOTS (hand-drawn feel)         -->
    <!-- ============================================= -->
    <g fill="#a07060" opacity="0.15">
      <circle cx="200" cy="160" r="1.5"/>
      <circle cx="280" cy="100" r="1.2"/>
      <circle cx="320" cy="180" r="1.5"/>
      <circle cx="420" cy="100" r="1.3"/>
      <circle cx="480" cy="160" r="1.2"/>
      <circle cx="500" cy="250" r="1.4"/>
      <circle cx="300" cy="340" r="1.3"/>
      <circle cx="380" cy="350" r="1.2"/>
      <circle cx="540" cy="470" r="1.3"/>
      <circle cx="510" cy="500" r="1.2"/>
      <circle cx="250" cy="250" r="1.3"/>
      <circle cx="190" cy="200" r="1.1"/>
      <circle cx="460" cy="200" r="1.4"/>
      <circle cx="350" cy="120" r="1.2"/>
      <circle cx="440" cy="310" r="1.3"/>
      <circle cx="270" cy="400" r="1.1"/>
      <circle cx="400" cy="240" r="1.2"/>
      <circle cx="530" cy="350" r="1.3"/>
    </g>
  </g>
</svg>
